Click To Enlarge 


-: Cover :-

    	http://desibbrg.org/images/65890916953570780684.jpg
    
-: Screens :-

    	http://desibbrg.org/images/57518311261280783596.jpg
    	http://desibbrg.org/images/61430272662391828115.jpg
    	http://desibbrg.org/images/90095287233399892026.jpg
    	http://desibbrg.org/images/94474365237584742178.jpg
    	http://desibbrg.org/images/22048324343755673964.jpg
    	http://desibbrg.org/images/95260221428705059356.jpg
    	http://desibbrg.org/images/68120236613304054062.jpg
    	http://desibbrg.org/images/10685625509044857239.jpg
    	http://desibbrg.org/images/42670604163280075048.jpg
    	http://desibbrg.org/images/23533346523736952281.jpg
    	http://desibbrg.org/images/52627214858028827820.jpg
    	http://desibbrg.org/images/50286522307724943468.jpg
    	http://desibbrg.org/images/65478133650323131720.jpg
    	http://desibbrg.org/images/68668533371566645465.jpg
    	http://desibbrg.org/images/36040492797769026665.jpg
    	http://desibbrg.org/images/71594301003121220249.jpg
    	http://desibbrg.org/images/90597858750487429020.jpg
    	http://desibbrg.org/images/02097593968702839298.jpg
    	http://desibbrg.org/images/65339540539512938195.jpg


-: Info :-


General

Format                         : Matroska
Format version                 : Version 2
File size                      : 1.37 GiB
Duration                       : 2h 24mn
Overall bit rate               : 1 362 Kbps
Encoded date                   : UTC 2013-04-28 03:03:38
Writing application            : mkvmerge v6.1.0 ('Old Devil') built on Mar  2 2013 14:32:37
Writing library                : libebml v1.3.0 + libmatroska v1.4.0

Video
ID                             : 1
Format                         : AVC
Format/Info                    : Advanced Video Codec
Format profile                 : High@L3.0
Format settings, CABAC         : Yes
Format settings, ReFrames      : 4 frames
Codec ID                       : V_MPEG4/ISO/AVC
Duration                       : 2h 24mn
Bit rate                       : 1 200 Kbps
Width                          : 656 pixels
Height                         : 380 pixels
Display aspect ratio           : 1.726
Frame rate mode                : Constant
Frame rate                     : 25.000 fps
Color space                    : YUV
Chroma subsampling             : 4:2:0
Bit depth                      : 8 bits
Scan type                      : Progressive
Bits/(Pixel*Frame)             : 0.193
Stream size                    : 1.18 GiB (86%)
Default                        : Yes
Forced                         : No

Audio
ID                             : 2
Format                         : AC-3
Format/Info                    : Audio Coding 3
Mode extension                 : CM (complete main)
Format settings, Endianness    : Big
Codec ID                       : A_AC3
Duration                       : 2h 24mn
Bit rate mode                  : Constant
Bit rate                       : 160 Kbps
Channel(s)                     : 6 channels
Channel positions              : Front: L C R, Side: L R, LFE
Sampling rate                  : 48.0 KHz
Bit depth                      : 16 bits
Compression mode               : Lossy
Stream size                    : 165 MiB (12%)
Title                          :
Language                       : Hindi
Default                        : Yes
Forced                         : No

Text
ID                             : 3
Format                         : UTF-8
Codec ID                       : S_TEXT/UTF8
Codec ID/Info                  : UTF-8 Plain Text
Title                          :
Language                       : English
Default                        : Yes
Forced                         : No

 
http://www.imdb.com/title/tt0102636

Directed by
Vidhu Vinod Chopra	 	
 
Writing credits
(in alphabetical order)
Vidhu Vinod Chopra	 	scenario
Vidhu Vinod Chopra	 	story
Vidhu Vinod Chopra	 	written by
Imtiaz Hussain	 	dialogue (as Imteyaz Hussein)
Shivkumar Subramaniam	 	screenplay (as Shivkumar Subrahmanyam)

Cast (in credits order) complete, awaiting verification
	Nana Patekar	... 	Anna

	Vidhu Vinod Chopra	... 	Corpse
	Kamal Chopra	... 	Rama
	Suresh Oberoi	... 	Abdul Khan

	Anupam Kher	... 	Inspector Prakash
	Anang Desai	... 	Inspector Meerani

	Jackie Shroff	... 	Kishen
	Tom Alter	... 	Musa
	Sameer	... 	Kid Kishen
	Hitesh	... 	Kid Karan
	Mohan	... 	Kid Anna
	Shweta	... 	Kid Paro
	Jatin	... 	Kid Prakash
	Vilas Shinde	... 	Man with bug
	Imtiaz Hussain	... 	Dara (as Imteyaz Hussein)
	Gautam Siddharth	... 	Godown Worker

	Anil Kapoor	... 	Karan
	Atul Dabhuwala	... 	Man on bike (song)
	Vishnu	... 	Cop in blue uniform (song)
	Anil Davda	... 	Traffic Cop
	Madhuri Dixit	... 	Paro
	Sameer Khakhar	... 	Iqbal
	Dilip Kulkarni	... 	Inspector Chauhan
	Sailesh Thakkar	... 	Anna's Man (as Shailesh Thakkar)
	Probir	... 	Anna's Man
	Ayub Baloch	... 	Anna's Driver
	R. Bhatt	... 	Shradh Priest
	R. Udupa	... 	Shradh Priest
	Deepak Pawar	... 	Shradh Priest
	H.L. Saluja	... 	Bartender (as Col. H.L. Saluja)
	Niranjan	... 	Doctor
	T. Kalpana	... 	Nurse
	Gurucharan Bhatia	... 	Magistrate
	Hashim	... 	Musa's Bodyguard
	Ashok Sharma	... 	Man at hotel
	Sanjay	... 	Kidnapper 1
	Humayu	... 	Kidnapper 2
	Shabnam Sukhdev	... 	Girl at fruit stall
	Ravindra Mehta	... 	Angry neighbour (song)
	Coomi Sethna	... 	Angry neighbour (song)
	Achyut Potdar	... 	Marriage Priest (panditji)
	Uday Chandra	... 	Petrol pump attendant
	Noor Mohammad	... 	Country craft driver